<svg width="54" height="60" viewBox="0 0 54 60" fill="none" xmlns="http://www.w3.org/2000/svg">
<path d="M46.3545 3.51562C45.0743 3.51562 43.874 3.86121 42.8389 4.46156V1.75781C42.8389 0.787031 42.0519 0 41.0811 0H12.9561C11.9852 0 11.1982 0.787031 11.1982 1.75781V4.48301C10.1548 3.8693 8.94089 3.51562 7.64539 3.51562C3.76836 3.51562 0.614136 6.66984 0.614136 10.5469C0.614136 13.5041 1.49046 16.3615 3.14832 18.8102C5.97066 22.9789 9.45101 24.0607 12.3309 25.2127C13.9914 29.348 17.3494 32.6252 21.5383 34.1769L20.2421 42.4219H19.9873C17.0796 42.4219 14.7139 44.7875 14.7139 47.6953V56.4844H12.9561C11.9853 56.4844 11.1983 57.2714 11.1983 58.2422C11.1983 59.213 11.9853 60 12.9561 60H41.0811C42.0519 60 42.8389 59.213 42.8389 58.2422C42.8389 57.2714 42.0519 56.4844 41.0811 56.4844H39.3233V47.6953C39.3233 44.7875 36.9576 42.4219 34.0498 42.4219H33.7951L32.499 34.177C36.6939 32.623 40.0557 29.3386 41.7138 25.1948C44.4343 24.1066 48.0004 23.0217 50.8517 18.8102C52.5096 16.3615 53.3859 13.504 53.3859 10.5469C53.3858 6.66984 50.2316 3.51562 46.3545 3.51562ZM11.1852 20.968C6.89914 19.2536 4.12976 15.1631 4.12976 10.5469C4.12976 8.60836 5.70687 7.03125 7.64539 7.03125C9.5839 7.03125 11.161 8.60836 11.161 10.5469C11.161 10.6705 11.174 10.791 11.1983 10.9073V19.3359C11.1983 19.9009 11.2286 20.4588 11.2868 21.0087L11.1852 20.968ZM35.8077 56.4844H18.2295V52.9688H35.8077V56.4844ZM34.0498 45.9375C35.0191 45.9375 35.8077 46.7261 35.8077 47.6953V49.4531H18.2295V47.6953C18.2295 46.7261 19.0181 45.9375 19.9873 45.9375C20.941 45.9375 31.8133 45.9375 34.0498 45.9375ZM23.8009 42.4219L24.9641 35.023C25.6367 35.1107 26.3224 35.1562 27.0186 35.1562C27.7148 35.1562 28.4005 35.1105 29.0731 35.023L30.2363 42.4219H23.8009ZM39.3233 19.3359C39.3233 26.1207 33.8034 31.6406 27.0186 31.6406C20.2338 31.6406 14.7139 26.1207 14.7139 19.3359V10.5469H39.3233V19.3359ZM39.3233 7.03125H14.7139V3.51562H39.3233V7.03125ZM42.8146 20.968L42.7522 20.993C42.8091 20.4483 42.8388 19.8955 42.8388 19.3359V10.5469C42.8389 8.60836 44.416 7.03125 46.3545 7.03125C48.293 7.03125 49.8702 8.60836 49.8702 10.5469C49.8702 15.1631 47.1008 19.2537 42.8146 20.968Z" fill="#242424"/>
</svg>
