<svg width="20" height="20" viewBox="0 0 20 20" fill="none" xmlns="http://www.w3.org/2000/svg">
<g clip-path="url(#clip0_117_924)">
<path fill-rule="evenodd" clip-rule="evenodd" d="M0.833252 2.365C0.833252 1.95877 0.994624 1.56919 1.28187 1.28195C1.56911 0.994702 1.9587 0.83333 2.36492 0.83333H17.6333C17.8346 0.833001 18.034 0.872383 18.22 0.949219C18.4061 1.02606 18.5752 1.13884 18.7176 1.28111C18.8601 1.42338 18.973 1.59235 19.0501 1.77834C19.1271 1.96433 19.1667 2.16368 19.1666 2.365V17.6333C19.1668 17.8347 19.1273 18.0341 19.0504 18.2202C18.9735 18.4063 18.8606 18.5753 18.7183 18.7178C18.5759 18.8602 18.4069 18.9731 18.2209 19.0502C18.0348 19.1272 17.8354 19.1668 17.6341 19.1667H2.36492C2.16371 19.1667 1.96447 19.127 1.77858 19.05C1.5927 18.973 1.42381 18.8601 1.28157 18.7178C1.13933 18.5754 1.02653 18.4065 0.949604 18.2206C0.87268 18.0346 0.833143 17.8354 0.833252 17.6342V2.365ZM8.08992 7.82333H10.5724V9.07C10.9308 8.35333 11.8474 7.70833 13.2249 7.70833C15.8658 7.70833 16.4916 9.13583 16.4916 11.755V16.6067H13.8191V12.3517C13.8191 10.86 13.4608 10.0183 12.5508 10.0183C11.2883 10.0183 10.7633 10.9258 10.7633 12.3517V16.6067H8.08992V7.82333ZM3.50659 16.4925H6.17992V7.70833H3.50659V16.4917V16.4925ZM6.56242 4.84333C6.56746 5.07222 6.52673 5.29982 6.44262 5.51276C6.35851 5.7257 6.23271 5.91969 6.07261 6.08336C5.91251 6.24702 5.72133 6.37706 5.5103 6.46584C5.29926 6.55461 5.07262 6.60035 4.84367 6.60035C4.61472 6.60035 4.38808 6.55461 4.17704 6.46584C3.966 6.37706 3.77483 6.24702 3.61473 6.08336C3.45463 5.91969 3.32883 5.7257 3.24472 5.51276C3.16061 5.29982 3.11988 5.07222 3.12492 4.84333C3.13481 4.39404 3.32024 3.96649 3.64149 3.65224C3.96274 3.33798 4.39427 3.16201 4.84367 3.16201C5.29307 3.16201 5.7246 3.33798 6.04585 3.65224C6.3671 3.96649 6.55253 4.39404 6.56242 4.84333Z" fill="black"/>
</g>
<defs>
<clipPath id="clip0_117_924">
<rect width="20" height="20" fill="white"/>
</clipPath>
</defs>
</svg>
