<svg width="61" height="60" viewBox="0 0 61 60" fill="none" xmlns="http://www.w3.org/2000/svg">
<path d="M57.1194 21.2611C56.3277 18.8096 56.6652 15.1295 54.6074 12.2881C52.5334 9.42425 48.9262 8.61027 46.8894 7.12058C44.874 5.6466 42.999 2.43906 39.6089 1.33281C36.3144 0.25773 32.9455 1.7166 30.3334 1.7166C27.7216 1.7166 24.3529 0.257378 21.0579 1.33269C17.6683 2.43871 15.7918 5.64695 13.7777 7.12023C11.7431 8.60816 8.13326 9.42437 6.05962 12.2877C4.00357 15.1268 4.33767 18.8153 3.54736 21.261C2.79525 23.5887 0.333374 26.3823 0.333374 30.0002C0.333374 33.6202 2.79244 36.403 3.54736 38.7392C4.33908 41.1907 4.00158 44.8708 6.05939 47.7122C8.13326 50.5762 11.7403 51.39 13.7774 52.8798C15.7924 54.3536 17.6677 57.5614 21.0579 58.6675C24.3501 59.7419 27.7243 58.2837 30.3334 58.2837C32.9388 58.2837 36.3208 59.7403 39.6089 58.6676C42.9985 57.5616 44.8739 54.3541 46.889 52.8801C48.9236 51.3921 52.5335 50.5759 54.6071 47.7126C56.6633 44.8734 56.329 41.1852 57.1194 38.7393C57.8715 36.4115 60.3334 33.6178 60.3334 30.0002C60.3334 26.3803 57.8749 23.5983 57.1194 21.2611ZM52.6591 37.2979C51.7363 40.1543 51.978 43.3511 50.8108 44.9629C49.6279 46.5961 46.5202 47.3421 44.1222 49.0962C41.7505 50.8307 40.0882 53.5803 38.1548 54.2111C36.3258 54.808 33.345 53.596 30.3335 53.596C27.3 53.596 24.3499 54.8106 22.512 54.2111C20.5789 53.5803 18.919 50.8326 16.5446 49.0961C14.1608 47.3527 11.0354 46.5913 9.85591 44.9627C8.69248 43.3562 8.92509 40.1373 8.00787 37.298C7.1088 34.5161 5.02087 32.1073 5.02087 30.0002C5.02087 27.8909 7.10693 25.4904 8.00763 22.7024C8.93048 19.8461 8.68873 16.6491 9.85591 15.0374C11.0381 13.4052 14.1481 12.6568 16.5446 10.9041C18.9239 9.16398 20.5758 6.42097 22.5118 5.78921C24.3393 5.19296 27.3299 6.40433 30.3333 6.40433C33.3723 6.40433 36.315 5.18886 38.1547 5.78921C40.0876 6.41992 41.749 9.16867 44.1222 10.9042C46.5057 12.6476 49.6313 13.409 50.8108 15.0375C51.9745 16.6443 51.7406 19.8599 52.6589 22.7022V22.7023C53.5579 25.4842 55.6459 27.893 55.6459 30.0002C55.6459 32.1094 53.5598 34.5099 52.6591 37.2979ZM41.1314 22.4773C42.0467 23.3927 42.0467 24.8766 41.1314 25.7918L29.4002 37.523C28.4849 38.4384 27.0008 38.4382 26.0856 37.523L19.5355 30.9729C18.6201 30.0576 18.62 28.5736 19.5354 27.6584C20.4507 26.7432 21.9349 26.743 22.8499 27.6584L27.7428 32.5512L37.8166 22.4774C38.732 21.5621 40.216 21.5621 41.1314 22.4773Z" fill="#242424"/>
</svg>
