<svg width="54" height="60" viewBox="0 0 54 60" fill="none" xmlns="http://www.w3.org/2000/svg">
<path d="M51.6936 23.9628C51.2992 10.6825 40.3742 0 26.9999 0C13.6257 0 2.70065 10.6825 2.30618 23.9628L0.529358 25.7396V37.7898L2.29406 39.5545V47.7647C2.29406 52.5652 6.19948 56.4706 10.9999 56.4706H13.1858C13.9143 58.5246 15.8758 60 18.1764 60H21.7058C24.0079 60 25.9705 58.5225 26.6978 56.4664C26.7987 56.4681 26.8997 56.4706 26.9999 56.4706C35.5221 56.4706 42.6527 50.3981 44.2922 42.3529H48.9074L53.4705 37.7898V25.7396L51.6936 23.9628ZM26.9999 3.52941C37.4742 3.52941 46.1954 11.174 47.8807 21.1765H44.2922C42.6527 13.1313 35.5221 7.05882 26.9999 7.05882C18.4778 7.05882 11.3472 13.1313 9.70771 21.1765H6.11924C7.80453 11.174 16.5257 3.52941 26.9999 3.52941ZM40.6709 21.1765C34.9663 21.1594 30.9369 21.5068 27.6148 16.6506L26.0016 14.2926L24.6152 16.7907C22.5952 20.4306 19.8749 21.1765 16.4117 21.1765H13.329C14.9002 15.0944 20.4337 10.5882 26.9999 10.5882C33.5662 10.5882 39.0997 15.0944 40.6709 21.1765ZM9.35289 38.8235H6.55442L4.05877 36.3279V27.2015L6.55442 24.7059H9.35289V38.8235ZM5.82348 47.7647V42.3529H9.7043C10.3687 45.6441 11.9582 48.6652 14.313 51.0916C13.8194 51.6191 13.4322 52.2467 13.1858 52.9412H10.9999C8.14559 52.9412 5.82348 50.6191 5.82348 47.7647ZM21.7058 56.4706H18.1764C17.2032 56.4706 16.4117 55.6791 16.4117 54.7059C16.4117 53.7328 17.2032 52.9412 18.1764 52.9412H21.7058C22.6789 52.9412 23.4705 53.7328 23.4705 54.7059C23.4705 55.6791 22.6789 56.4706 21.7058 56.4706ZM41.1176 38.8235C41.1176 46.608 34.7844 52.9412 26.9999 52.9412C26.8988 52.9412 26.7968 52.9392 26.6949 52.9368C25.9652 50.8851 24.0048 49.4118 21.7058 49.4118C18.0823 49.4198 18.1401 49.3936 17.6884 49.4352C14.6247 46.7498 12.8823 42.9248 12.8823 38.8235V24.7059H16.4117C19.5349 24.7059 23.3384 24.1909 26.2827 20.6076C30.1674 24.6786 34.9147 24.7059 39.1762 24.7059H41.1176V38.8235ZM49.9411 36.3279L47.4455 38.8235H44.647V24.7059H47.4455L49.9411 27.2015V36.3279Z" fill="#242424"/>
</svg>
